<?xml version="1.0"?><svg width="463.89285" height="438.87704" xmlns="http://www.w3.org/2000/svg">
 <title>homedvngrey</title>

 <metadata id="metadata7">image/svg+xml</metadata>
 <g>
  <title>Layer 1</title>
  <g id="layer1">
   <path fill="#808080" stroke-width="0.4" stroke-miterlimit="4" id="rect2391" d="m394.806,223.095993l0,0zm0,0l-162.813004,-144.187691l-162.905899,144.249702l0,206.124985c0,5.324005 4.301605,9.594025 9.625,9.594025l101.812897,0l0,-90.375c0,-5.323029 4.270004,-9.625 9.593002,-9.625l83.656998,0c5.322998,0 9.593018,4.301971 9.593018,9.625l0,90.375l101.843994,0c5.322998,0 9.593994,-4.27002 9.593994,-9.594025l0,-206.186996zm-325.718903,0.062012l0,0z"/>
   <path fill="#808080" stroke-width="0.4" stroke-miterlimit="4" id="path2399" d="m231.048996,0l-231.048992,204.584l24.338297,27.457001l207.655703,-183.884201l207.607986,183.884201l24.291016,-27.457001l-231.001007,-204.584l-0.897995,1.0397l-0.945007,-1.0397z"/>
   <path fill="#808080" stroke-width="0.4" stroke-miterlimit="4" id="rect2404" d="m69.087097,29.448999l58.5709,0l-0.509995,34.691099l-58.060905,52.451904l0,-87.143003z"/>
  </g>
 </g>
</svg>